<?xml version="1.0"?>
<svg width="512" height="512" xmlns="http://www.w3.org/2000/svg" xmlns:svg="http://www.w3.org/2000/svg">
 <defs>
  <style>.fa-secondary{opacity:.4}</style>
 </defs>
 <g class="layer">
  <title>Layer 1</title>
  <path class="fa-primary" d="m488.7,133.3l-112,-31.14a32,32 0 0 0 -37.34,16.84l-35.36,73l-240,0a64,64 0 0 0 -64,64l0,64l32,-20l0,47.6l-11.9,31.8a64.08,64.08 0 0 0 -2.2,38l24.9,82.5a16,16 0 0 0 15.5,12.1l63.8,0a16,16 0 0 0 15.5,-19.9l-26.3,-88.4l19.4,-51.7l157.3,0l0,144a16,16 0 0 0 16,16l64,0a16,16 0 0 0 16,-16l0,-208l32,-64l64,0a32,32 0 0 0 32,-32l0,-27.9a32.13,32.13 0 0 0 -23.3,-30.8zm-72.7,42.7a16,16 0 1 1 16,-16a16,16 0 0 1 -16,16z" fill="black" id="svg_2"/>
  <ellipse cx="340.5" cy="123.5" fill="black" id="svg_3" rx="23" ry="22"/>
 </g>
</svg>