<?xml version="1.0" standalone="no"?>
<!DOCTYPE svg PUBLIC "-//W3C//DTD SVG 20010904//EN"
 "http://www.w3.org/TR/2001/REC-SVG-20010904/DTD/svg10.dtd">
<svg version="1.0" xmlns="http://www.w3.org/2000/svg"
 width="640.000000pt" height="640.000000pt" viewBox="0 0 640.000000 640.000000"
 preserveAspectRatio="xMidYMid meet">
<metadata>
Created by potrace 1.11, written by Peter Selinger 2001-2013
</metadata>
<g transform="translate(0.000000,640.000000) scale(0.100000,-0.100000)"
fill="#000000" stroke="none">
<path d="M4277 5726 c-54 -29 -71 -58 -111 -185 -39 -125 -54 -236 -50 -380 2
-69 6 -137 8 -151 6 -33 50 -196 76 -285 39 -130 59 -200 56 -202 -2 -2 -156
-48 -196 -59 -8 -2 -107 -31 -220 -64 -113 -34 -257 -76 -320 -95 -63 -18
-122 -36 -130 -39 -10 -3 -43 29 -100 101 -47 58 -97 119 -112 135 -16 17 -28
32 -28 35 0 2 -6 10 -12 17 -22 22 -89 103 -334 401 -255 309 -307 366 -354
387 -17 7 -30 16 -30 20 0 5 -8 8 -18 8 -10 0 -22 4 -28 9 -14 15 -109 29
-172 26 -33 -2 -132 -25 -232 -55 -96 -29 -204 -60 -240 -70 -36 -11 -94 -28
-130 -38 -36 -11 -135 -40 -220 -65 -85 -25 -169 -51 -185 -57 -17 -6 -32 -11
-35 -11 -12 1 -186 -50 -245 -72 -116 -43 -229 -170 -260 -292 -14 -55 -13
-166 1 -218 8 -29 17 -59 19 -67 2 -8 20 -69 40 -135 19 -66 37 -127 39 -135
2 -8 7 -28 11 -45 4 -16 10 -34 14 -40 3 -5 6 -14 7 -20 1 -5 8 -30 15 -55 7
-25 13 -47 14 -50 0 -3 8 -30 18 -60 26 -85 98 -328 102 -348 5 -19 31 -105
69 -231 14 -46 25 -85 23 -87 -1 -1 -20 1 -43 5 -42 8 -134 -13 -134 -30 0 -5
-5 -9 -11 -9 -17 0 -29 -15 -78 -104 -23 -40 -98 -180 -125 -231 -12 -22 -24
-42 -27 -45 -4 -3 -15 -29 -24 -58 -25 -77 -9 -145 47 -200 22 -22 54 -46 70
-53 27 -11 29 -15 23 -48 -10 -51 -13 -82 -20 -169 -3 -42 -7 -77 -8 -78 -1
-2 -14 -5 -29 -8 -64 -11 -129 -62 -154 -121 -25 -61 -20 -100 36 -285 18 -58
33 -109 34 -115 13 -53 42 -136 58 -163 32 -53 90 -85 156 -88 31 -1 73 3 93
10 35 12 37 12 54 -16 19 -34 110 -145 138 -170 18 -16 17 -18 -8 -69 -55
-107 -26 -209 77 -275 33 -22 63 -39 66 -39 4 0 18 -8 32 -16 56 -36 247 -136
279 -147 84 -29 169 -1 225 75 20 26 36 54 36 61 0 8 8 11 23 7 44 -9 93 -15
167 -21 41 -2 81 -7 87 -9 7 -2 18 -24 24 -48 6 -27 26 -61 47 -84 59 -63 129
-82 212 -56 25 8 52 16 61 18 9 2 49 13 90 25 41 12 79 23 84 24 6 1 15 4 20
8 8 4 50 16 85 23 58 11 145 80 160 125 7 23 6 121 -3 161 -7 34 -5 37 33 63
42 28 64 45 133 107 l41 37 53 -28 c41 -20 66 -26 102 -24 55 3 119 32 141 64
8 13 21 28 28 36 6 7 12 15 12 18 0 3 23 48 52 98 135 243 150 278 146 339 -5
74 -40 128 -107 165 -27 15 -47 33 -45 38 7 23 25 190 27 246 0 19 13 27 60
40 102 29 162 140 133 250 l-13 48 106 32 c58 17 111 33 116 34 6 1 30 9 55
16 48 14 53 16 85 24 11 3 58 17 105 32 47 14 116 34 153 44 38 10 70 20 71
22 1 2 19 39 41 83 21 44 61 113 88 154 54 80 213 245 246 256 12 3 21 10 21
13 0 4 17 16 38 27 20 11 40 23 43 28 11 16 195 89 269 107 41 11 107 22 145
26 67 6 104 7 239 1 l59 -2 22 40 c13 22 36 65 53 95 17 30 43 80 59 110 15
30 30 57 33 60 7 6 40 69 115 215 77 151 77 168 10 385 -15 47 -28 92 -29 100
-4 23 -45 158 -68 223 -26 72 -77 131 -142 165 -77 39 -166 36 -326 -12 -69
-21 -132 -40 -140 -43 -8 -4 -19 -5 -24 -4 -4 1 -14 -4 -22 -10 -8 -6 -14 -8
-14 -4 0 4 -7 2 -15 -5 -9 -7 -18 -10 -22 -7 -3 3 -18 0 -34 -9 -16 -8 -29
-12 -29 -10 0 3 -25 -4 -57 -15 -31 -10 -62 -19 -68 -19 -11 0 -33 60 -66 180
-15 53 -14 51 -22 70 -3 8 -9 29 -13 45 -10 41 -9 38 -17 60 -20 63 -24 201
-6 270 5 22 11 48 14 58 2 9 7 22 10 27 16 26 7 91 -18 123 -24 32 -53 52
-240 166 -82 50 -144 62 -190 37z m-2076 -947 c13 -18 32 -41 42 -53 11 -11
34 -39 52 -61 27 -32 229 -276 307 -370 132 -159 170 -206 167 -208 -7 -5
-169 -55 -199 -62 -3 -1 -32 -9 -65 -19 -33 -10 -68 -20 -78 -21 -9 -2 -22 -7
-27 -10 -6 -4 -22 -9 -36 -11 -15 -3 -52 -13 -83 -23 -70 -23 -170 -52 -191
-56 -8 -2 -15 -4 -15 -5 0 -1 -7 -3 -15 -5 -15 -4 -70 -20 -172 -51 -29 -8
-66 -19 -83 -24 -16 -4 -77 -22 -135 -39 -58 -18 -113 -34 -123 -36 -10 -2
-26 -7 -36 -10 -14 -4 -20 5 -29 42 -7 27 -11 51 -10 54 2 3 -3 13 -11 22 -7
10 -11 17 -7 17 3 0 -1 16 -9 36 -8 20 -17 46 -19 58 -2 11 -20 75 -41 141
-20 66 -38 128 -40 138 -6 29 -16 60 -24 82 -5 11 -20 61 -34 111 -15 50 -29
97 -32 106 -5 11 4 18 32 26 21 6 67 20 103 30 167 50 317 94 333 97 9 2 21 6
25 9 5 3 19 7 33 10 13 3 38 10 54 15 39 14 164 51 190 57 11 2 47 13 80 23
76 25 68 26 96 -10z m22 -1845 c37 -7 84 -21 104 -29 21 -9 40 -16 43 -17 17
-2 49 -20 125 -70 38 -24 119 -100 155 -144 53 -65 122 -215 136 -294 28 -154
17 -285 -33 -410 -4 -8 -7 -17 -8 -20 -17 -50 -91 -163 -141 -216 -140 -146
-320 -222 -528 -222 -173 0 -345 66 -474 184 -120 110 -187 226 -225 389 -20
84 -14 251 11 335 18 62 66 173 84 195 4 5 28 35 52 65 65 82 123 131 216 183
47 26 153 64 205 73 16 3 31 6 32 8 10 9 189 2 246 -10z"/>
<path d="M5237 3149 c-59 -9 -130 -28 -182 -50 -16 -7 -32 -13 -35 -14 -37
-13 -134 -72 -178 -108 -52 -45 -142 -141 -142 -152 0 -4 -13 -25 -28 -48 -54
-80 -104 -218 -106 -294 0 -24 -4 -43 -7 -43 -6 0 -2 -161 5 -200 3 -14 8 -38
11 -55 14 -74 68 -197 119 -270 120 -172 317 -299 516 -331 58 -10 212 -10
270 -1 236 38 465 207 574 426 62 123 85 232 81 380 -11 359 -249 654 -604
746 -71 18 -212 25 -294 14z m170 -578 c84 -23 153 -115 155 -206 1 -62 -36
-134 -91 -175 -40 -30 -54 -34 -111 -36 -36 -2 -78 3 -95 10 -135 58 -177 232
-82 339 29 31 71 61 89 62 3 0 9 2 12 6 10 10 86 10 123 0z"/>
</g>
</svg>
