<?xml version="1.0" standalone="no"?>
<!DOCTYPE svg PUBLIC "-//W3C//DTD SVG 20010904//EN"
 "http://www.w3.org/TR/2001/REC-SVG-20010904/DTD/svg10.dtd">
<svg version="1.0" xmlns="http://www.w3.org/2000/svg"
 width="640.000000pt" height="640.000000pt" viewBox="0 0 640.000000 640.000000"
 preserveAspectRatio="xMidYMid meet">
<metadata>
Created by potrace 1.11, written by Peter Selinger 2001-2013
</metadata>
<g transform="translate(0.000000,640.000000) scale(0.100000,-0.100000)"
fill="#000000" stroke="none">
<path d="M1290 5734 c-207 -71 -335 -258 -329 -484 0 -25 1 -49 1 -55 0 -5 -1
-58 -2 -117 -1 -59 1 -111 4 -116 2 -4 1 -14 -3 -20 -4 -7 -5 -33 -1 -57 4
-25 5 -47 2 -49 -6 -7 -8 -116 -2 -116 3 0 5 -27 5 -60 0 -33 -2 -60 -5 -60
-3 0 -3 -47 0 -105 3 -58 3 -105 0 -105 -3 0 -4 -57 -3 -127 5 -223 5 -232 -1
-242 -4 -5 -2 -12 2 -15 5 -3 6 -26 2 -50 -4 -25 -4 -50 0 -55 3 -6 4 -26 2
-46 -4 -34 -5 -34 -31 -21 -67 34 -143 36 -202 5 -47 -23 -385 -361 -410 -409
-38 -72 -26 -176 27 -235 70 -77 66 -63 32 -130 -17 -33 -30 -61 -29 -63 1 -1
-6 -19 -15 -40 -9 -20 -17 -41 -18 -47 -2 -5 -6 -18 -9 -27 -4 -10 -9 -25 -12
-33 -3 -10 -19 -15 -52 -16 -89 -1 -133 -18 -183 -70 -58 -61 -62 -87 -58
-385 3 -292 5 -300 63 -359 40 -40 83 -57 158 -64 67 -6 71 -7 79 -36 13 -41
35 -96 74 -183 l33 -72 -41 -42 c-48 -49 -68 -92 -70 -151 -3 -93 9 -111 207
-310 105 -106 202 -195 226 -207 49 -26 130 -29 179 -8 19 8 55 33 79 54 24
22 47 39 50 39 3 -1 33 -13 66 -29 81 -38 113 -51 160 -66 54 -17 56 -19 56
-81 1 -95 50 -172 133 -210 37 -17 69 -19 306 -19 236 0 269 2 305 19 85 39
131 112 134 211 1 30 5 57 9 61 4 4 25 12 47 19 47 15 88 32 169 71 67 32 54
35 126 -31 57 -51 159 -68 231 -37 46 20 394 367 421 420 24 48 27 127 6 178
-9 19 -34 55 -56 78 -43 46 -44 57 -5 116 7 11 13 27 13 37 0 10 4 18 8 18 4
0 17 29 27 65 27 88 32 93 95 96 133 6 214 80 226 206 3 32 9 61 12 65 9 9 38
10 254 6 98 -2 178 -1 178 2 0 3 27 5 60 5 33 0 60 -3 60 -6 0 -3 20 -3 45 1
25 4 48 4 50 0 2 -4 25 -4 50 0 25 4 48 4 50 0 10 -16 55 4 77 33 78 105 266
256 403 325 83 41 234 90 330 106 76 12 316 14 375 2 14 -3 41 -8 60 -11 50
-9 157 -44 217 -71 28 -13 54 -24 57 -24 3 0 124 119 270 264 190 190 274 280
298 323 l33 58 0 340 0 340 -25 50 c-53 108 -153 174 -274 181 -39 2 -73 4
-76 4 -5 1 -332 0 -355 -1 -5 -1 -35 0 -65 0 -30 0 -63 1 -72 0 -87 0 -88 0
-88 45 0 22 0 57 1 76 1 19 1 42 1 50 -4 72 -1 254 4 261 3 5 0 9 -6 9 -6 0
-8 4 -5 10 7 11 10 25 19 85 3 20 11 45 16 55 6 10 10 27 10 38 0 11 7 25 15
32 8 7 15 19 15 27 0 8 19 41 41 75 57 84 61 165 9 219 -24 25 -132 149 -160
182 -75 91 -116 116 -186 113 -65 -3 -98 -26 -162 -114 -73 -100 -166 -272
-178 -332 0 -3 -4 -12 -7 -20 -7 -17 -43 -158 -52 -205 -8 -37 -15 -240 -15
-400 0 -167 0 -187 -6 -197 -3 -4 -54 -7 -115 -5 -60 1 -109 0 -109 -3 0 -3
-47 -3 -105 0 -58 3 -105 3 -105 0 0 -3 -27 -5 -60 -5 -33 0 -60 2 -60 5 0 4
-107 4 -120 -1 -3 -1 -8 -1 -11 -1 -3 1 -24 1 -45 1 -48 1 -116 2 -214 4 l-75
2 -97 225 c-53 124 -104 243 -114 265 -9 22 -38 90 -64 150 -26 61 -73 171
-105 245 -32 74 -65 153 -75 175 -10 22 -30 69 -45 105 -95 227 -162 318 -277
374 -116 57 -101 56 -898 55 l-735 0 -75 -25z m496 -614 c10 4 32 4 49 0 16
-3 41 -4 55 0 13 3 46 3 71 0 26 -3 55 -3 65 0 10 4 32 4 49 0 16 -3 41 -4 55
0 13 3 46 3 71 0 26 -3 55 -3 65 0 10 4 32 4 49 0 16 -3 41 -4 54 0 14 3 45 3
70 0 25 -3 86 -3 135 0 86 5 88 4 101 -20 7 -14 61 -137 120 -275 59 -137 115
-268 125 -290 30 -67 80 -185 120 -282 41 -101 40 -104 -30 -93 -19 3 -78 3
-130 0 -52 -3 -125 -3 -163 0 -37 3 -67 3 -67 0 0 -3 -39 -4 -87 -3 -108 3
-173 3 -193 2 -8 -1 -31 0 -50 0 -19 1 -63 1 -98 -1 -34 -2 -62 -1 -62 2 0 4
-101 4 -120 0 -4 -1 -247 1 -275 2 -5 0 -26 0 -45 -1 -19 -1 -54 -1 -76 -1
-45 0 -45 1 -45 88 1 9 0 42 0 72 0 30 0 62 0 70 3 73 1 243 -3 249 -3 4 -1
13 3 19 4 7 5 33 1 57 -4 25 -5 47 -2 49 6 7 8 116 1 116 -3 0 -3 23 1 50 4
28 3 53 -2 56 -5 3 -6 9 -3 14 3 5 6 34 6 64 l1 55 37 3 c20 2 57 1 82 -3 26
-3 55 -2 65 1z m129 -1935 c22 -4 60 -13 85 -21 61 -20 210 -94 210 -105 0 -5
6 -9 13 -9 22 0 187 -167 187 -189 0 -5 4 -11 9 -13 13 -5 85 -146 99 -193 35
-122 38 -146 36 -260 -2 -119 -5 -147 -25 -215 -17 -57 -62 -157 -91 -205 -37
-59 -158 -195 -173 -195 -3 0 -16 -10 -31 -22 -53 -47 -214 -123 -279 -133
-11 -2 -20 -4 -20 -5 0 -6 -55 -11 -146 -15 -104 -4 -189 7 -284 37 -48 14
-189 87 -193 99 -2 5 -8 9 -13 9 -36 0 -205 188 -240 268 -7 17 -17 32 -20 32
-7 0 -39 99 -62 186 -14 53 -15 262 -3 319 52 235 197 432 400 544 58 33 153
71 191 76 11 2 20 4 20 5 0 1 16 4 35 7 19 2 36 6 38 8 6 5 216 -3 257 -10z"/>
<path d="M5168 2395 c-1 -2 -21 -6 -43 -10 -46 -8 -45 -7 -105 -24 -25 -7 -49
-17 -55 -21 -5 -5 -13 -9 -18 -9 -20 -1 -105 -45 -148 -76 -27 -19 -52 -35
-56 -35 -4 0 -43 -38 -87 -83 -152 -158 -233 -335 -253 -552 -6 -72 -6 -65 1
-140 11 -114 43 -230 88 -320 84 -165 249 -325 410 -399 55 -25 134 -54 169
-62 11 -2 29 -7 42 -10 12 -3 77 -7 144 -9 191 -5 344 37 502 139 121 78 249
221 314 351 21 42 66 178 73 222 11 65 12 236 2 303 -31 207 -153 414 -323
550 -70 55 -225 140 -257 140 -8 0 -18 3 -22 7 -3 4 -12 8 -19 9 -7 1 -32 7
-57 14 -40 11 -293 24 -302 15z m217 -659 c141 -74 176 -263 71 -377 -67 -72
-172 -96 -264 -60 -58 23 -117 82 -135 135 -27 79 -9 192 38 241 23 24 82 63
110 73 41 14 143 7 180 -12z"/>
</g>
</svg>
